<svg width="150" height="64" viewBox="0 0 150 64" fill="none" xmlns="http://www.w3.org/2000/svg">
<path d="M85.7299 14.1151L95.0639 12.6331L94.6999 15.1031L89.1618 15.9871L88.7979 18.5611H94.7259L94.3619 21.0311H93.3738L91.9178 31.3531H88.1999L89.6559 21.0311H88.4339L86.9779 31.3531H83.2859L85.7299 14.1151ZM76.2399 21.7851L76.3438 21.0311H72.6258L72.9899 18.5611H74.7318L74.4199 17.0791H77.8779L78.1898 18.5611H79.1518L79.8799 17.0791H83.3379L82.6098 18.5611H84.3519L83.9878 21.0311H80.2959L80.1918 21.7851H83.3898L83.0518 24.2551H79.8539L79.0999 29.6371C79.0132 30.1397 78.7705 30.5557 78.3718 30.8851C77.9905 31.1971 77.5485 31.3531 77.0459 31.3531H73.6398L75.0958 29.8711L75.9018 24.2551H72.6778L73.0158 21.7851H76.2399ZM77.3318 14.1151L77.4359 13.3871L76.7859 12.6331H81.4919L81.2839 14.1151H84.4818L84.1179 16.5851H73.7439L74.1078 14.1151H77.3318ZM80.2178 24.9831H82.6879L82.7399 29.9231H80.2699L80.2178 24.9831ZM73.8478 29.9231H71.3778L72.8338 24.9831H75.3038L73.8478 29.9231Z" fill="#333333"/>
<path d="M65.7379 15.5711L64.0219 27.6871H61.0839L62.7999 15.5711H65.7379ZM70.7559 13.0491L68.3899 29.9491C68.3205 30.4344 68.0952 30.7897 67.7139 31.0151C67.3325 31.2231 66.8992 31.3271 66.4139 31.3271H62.4879L64.7239 29.0911L66.8559 13.9591L66.2319 13.0491H70.7559ZM47.8499 31.1191L49.5139 19.1851H60.4599L59.6279 25.1131C59.5585 25.5984 59.4285 25.9277 59.2379 26.1011C59.0645 26.2744 58.7265 26.3611 58.2239 26.3611H53.5439L55.7019 24.5931L56.1439 21.3951H53.2059L52.2439 28.2591H59.7579L60.7719 27.5311L60.2779 31.1191H47.8499ZM52.5299 13.4131L51.9839 12.6851H59.5499L61.4999 18.8991H57.2879L55.8319 15.2071H55.6499L53.1799 18.8991H48.7599L52.5299 13.4131Z" fill="#333333"/>
<path d="M25.4919 20.6671L26.9739 17.0531H25.6479L25.9859 14.5311H28.0139L28.4559 13.4391L27.9099 12.6591H31.7579L31.0299 14.5311H35.6839L35.3459 17.0531H30.0419L28.5599 20.8231H29.7299L30.1719 17.8071H33.3439L32.9019 20.8231H34.3839L34.0719 23.1371H32.5899L32.3039 25.1391L34.1759 24.8791L33.8119 27.4791L31.9139 27.7391L31.4199 31.3271H27.5459L27.9879 28.2591L23.8279 28.8051L24.1919 26.2051L28.3519 25.6591L28.7159 23.1371H25.1539L25.4919 20.6671ZM41.2219 22.0711H42.4959L45.1999 31.3011H41.4039L39.7919 25.2951L37.1399 31.3271H33.2139L38.3099 19.9131H42.1839L41.2219 22.0711ZM41.1439 14.6091H46.9679L46.5779 17.3911L45.7719 19.6011H42.3919L43.3019 17.1051H40.2079L39.3239 19.4451H35.3979L37.6079 13.3091L37.0879 12.6591H41.8979L41.1439 14.6091Z" fill="#333333"/>
<path d="M20.7359 21.5251L19.6699 29.1431C19.6006 29.6457 19.3666 30.0704 18.9679 30.4171C18.5866 30.7464 18.1533 30.9111 17.6679 30.9111H13.5079L15.2499 29.0651L15.3279 28.4411H5.44794L5.10994 30.8851H0.66394L1.96394 21.5251H20.7359ZM9.58194 16.5851L9.63394 16.0911H2.24994L2.50994 14.1151H9.91994L9.99794 13.6211L9.13994 12.6331H15.0679L14.8599 14.1151H22.2699L22.0099 16.0911H14.5739L14.4959 16.5851H20.9439L20.6579 18.5611H14.2359L14.1579 19.0551H22.0879L21.8019 21.0311H1.05394L1.33994 19.0551H9.21794L9.29594 18.5611H2.37994L2.66594 16.5851H9.58194ZM6.07194 23.9951H15.9519L16.0299 23.5011H6.14994L6.07194 23.9951ZM5.73394 26.4651H15.6139L15.6659 25.9711H5.78594L5.73394 26.4651Z" fill="#333333"/>
<path d="M120.576 41.5989H123.444C123.216 41.2389 122.988 40.9269 122.748 40.6509L123.516 40.2789C123.828 40.6869 124.116 41.1189 124.404 41.5989H126.66C126.948 41.1669 127.212 40.7109 127.44 40.2429L128.28 40.5429C128.088 40.9269 127.872 41.2869 127.632 41.5989H130.5V42.3549H125.928C125.832 42.6909 125.736 43.0029 125.64 43.3029H129.864V44.0349H125.352C125.196 44.3709 125.028 44.6949 124.86 44.9949H130.728V45.7509H127.716C128.436 46.6029 129.552 47.2749 131.04 47.7669L130.668 48.5589C129.54 48.1029 128.616 47.5749 127.92 46.9749V51.2949H127.032V46.9029H127.836C127.428 46.5429 127.092 46.1589 126.828 45.7509H124.368C123.408 47.0589 122.124 47.9829 120.516 48.5349L120.06 47.7789C121.392 47.3589 122.472 46.6869 123.3 45.7509H120.312V44.9949H123.876C124.08 44.6829 124.26 44.3589 124.428 44.0349H121.212V43.3029H124.728C124.836 42.9909 124.932 42.6669 125.028 42.3549H120.576V41.5989ZM123.468 46.9029H124.356V47.8029C124.32 48.7269 124.068 49.4709 123.6 50.0349C123.144 50.5629 122.412 50.9709 121.38 51.2589L120.9 50.5269C121.86 50.2749 122.544 49.9389 122.928 49.5069C123.264 49.0749 123.444 48.4989 123.468 47.8029V46.9029Z" fill="#333333"/>
<path d="M108.072 43.5069H109.5V40.3629H110.364V43.5069H111.684V44.3469H110.364V48.3069C110.904 48.1029 111.432 47.8749 111.948 47.6349V48.4989C110.772 49.0509 109.512 49.5069 108.156 49.8669L107.94 49.0029C108.468 48.8829 108.996 48.7509 109.5 48.5949V44.3469H108.072V43.5069ZM112.116 41.5029H114.876C114.756 41.1069 114.624 40.7469 114.48 40.4109L115.38 40.2669C115.5 40.6269 115.62 41.0469 115.728 41.5029H118.5V42.3189H112.116V41.5029ZM111.792 44.8149H113.724C113.484 44.1909 113.208 43.6149 112.884 43.0869L113.664 42.7989C113.976 43.3509 114.276 44.0229 114.54 44.8149H116.196C116.532 44.1549 116.82 43.4469 117.072 42.6909L117.864 42.9669C117.612 43.6629 117.336 44.2869 117.036 44.8149H118.752V45.6549H111.792V44.8149ZM118.044 46.7469V51.2709H117.216V50.5989H113.496V51.2709H112.668V46.7469H118.044ZM113.496 49.7829H117.216V47.5629H113.496V49.7829Z" fill="#333333"/>
<path d="M102.564 51.2229H100.68L100.488 50.3829C101.112 50.4069 101.7 50.4309 102.264 50.4309C102.6 50.4309 102.78 50.2269 102.78 49.8309V43.3509H102.384C101.232 45.8709 99.252 47.9229 96.444 49.5189L95.988 48.7869C98.556 47.3709 100.404 45.5589 101.52 43.3509H96.192V42.5229H102.78V40.3269H103.656V42.5229H106.668V43.3509H103.656V50.0469C103.656 50.8269 103.284 51.2229 102.564 51.2229Z" fill="#333333"/>
<path d="M89.952 40.3389C89.952 41.3709 89.916 42.2589 89.868 43.0029C90.54 46.2669 92.28 48.7629 95.076 50.4789L94.512 51.2349C92.064 49.6269 90.408 47.4669 89.556 44.7549C88.836 47.3709 87.132 49.5309 84.468 51.2469L83.94 50.4789C87.24 48.4509 88.944 45.7029 89.052 42.2469C89.064 41.4309 89.076 40.7949 89.076 40.3389H89.952Z" fill="#333333"/>
<path d="M76.524 40.3509H77.412V41.5509C77.4 41.9709 77.388 42.3789 77.364 42.7749H81.96C81.912 44.8389 81.84 46.5189 81.72 47.8029C81.6 49.0629 81.396 49.9509 81.108 50.4549C80.82 50.9349 80.364 51.1869 79.74 51.2349H78.168L77.928 50.3949C78.408 50.4189 78.876 50.4309 79.308 50.4309C79.992 50.4309 80.436 50.0109 80.652 49.1829C80.868 48.3069 81.012 46.4469 81.084 43.6149H77.292C77.112 45.3189 76.764 46.7349 76.248 47.8869C75.528 49.3509 74.376 50.4909 72.768 51.3069L72.3 50.5749C73.872 49.7349 74.976 48.6069 75.6 47.2149C75.996 46.2189 76.26 45.0189 76.404 43.6149H72.912V42.7749H76.476C76.5 42.3669 76.512 41.9589 76.524 41.5509V40.3509Z" fill="#333333"/>
<path d="M65.544 40.1589C65.736 40.5669 65.928 41.0349 66.108 41.5509H70.32V42.3789H68.232C68.088 43.0149 67.896 43.6269 67.644 44.2029H70.572V45.0309H61.956V46.8069C61.908 48.6789 61.476 50.1789 60.648 51.3069L59.988 50.7189C60.684 49.7829 61.056 48.4749 61.08 46.8069V44.2029H63.54L63.036 42.3789H60.84V41.5509H65.232C65.064 41.0949 64.86 40.6869 64.644 40.3149L65.544 40.1589ZM64.392 44.2029H66.816C67.08 43.6269 67.284 43.0149 67.404 42.3789H63.888L64.392 44.2029Z" fill="#333333"/>
<path d="M50.412 43.3869C49.932 44.4789 49.32 45.3909 48.576 46.1349L48.024 45.4269C49.152 44.2509 49.92 42.6549 50.316 40.6509L51.192 40.8069C51.06 41.4309 50.904 42.0069 50.724 42.5469H53.292V40.4109H54.168V42.5469H58.116V43.3869H54.168V46.1589H57.876V46.9989H54.168V50.0469H58.884V50.9109H48.312V50.0469H53.292V46.9989H49.764V46.1589H53.292V43.3869H50.412Z" fill="#333333"/>
<path d="M38.124 43.8189V44.8749C38.064 47.5149 37.548 49.6269 36.564 51.2109L35.964 50.5749C36.78 49.2069 37.224 47.2989 37.296 44.8749V41.1189C40.464 41.0949 43.32 40.8429 45.852 40.3869L46.284 41.1669C43.86 41.5749 41.136 41.8029 38.124 41.8509V43.0269H42.132C42.192 42.6669 42.24 42.2949 42.276 41.9349L43.14 42.0429C43.104 42.3789 43.056 42.7149 43.008 43.0269H46.812V43.8189H42.876C42.804 44.2269 42.72 44.5989 42.624 44.9589H45.708V49.0389H44.88V45.7509H40.14V49.0869H39.312V44.9589H41.748C41.844 44.5749 41.928 44.2029 42 43.8189H38.124ZM43.2 48.7629C44.532 49.2669 45.744 49.8669 46.836 50.5749L46.356 51.3069C45.192 50.5149 43.992 49.8789 42.768 49.4109L43.2 48.7629ZM42.312 46.2309L43.152 46.2909C43.008 47.7069 42.576 48.7989 41.856 49.5429C41.112 50.2869 39.972 50.8869 38.448 51.3189L37.98 50.5269C39.396 50.1669 40.44 49.6749 41.112 49.0269C41.784 48.3789 42.18 47.4429 42.312 46.2309Z" fill="#333333"/>
<path d="M34.248 40.4349L34.68 41.2029C33.624 41.6109 32.46 41.8629 31.164 41.9349V44.1189H35.04V44.9469H33.792V51.3549H32.94V44.9469H31.164V46.3749C31.104 48.4389 30.648 50.0829 29.784 51.3069L29.172 50.6589C29.88 49.6269 30.264 48.1989 30.324 46.3749V41.2389C31.776 41.2149 33.084 40.9389 34.248 40.4349ZM24.252 41.3589H26.544C26.376 40.9749 26.196 40.6269 25.992 40.3149L26.88 40.1709C27.06 40.5309 27.228 40.9269 27.396 41.3589H29.664V42.1509H24.252V41.3589ZM24.132 44.0829H25.512C25.332 43.6029 25.116 43.1469 24.876 42.7269L25.644 42.4509C25.872 42.8949 26.088 43.4349 26.28 44.0829H27.6C27.84 43.5549 28.044 43.0029 28.224 42.4269L29.004 42.6909C28.812 43.2069 28.608 43.6749 28.38 44.0829H29.736V44.8629H27.42V46.2069H29.532V46.9989H27.42V50.3949C27.42 51.0429 27.072 51.3669 26.376 51.3669H25.728L25.548 50.5629C25.74 50.5989 25.92 50.6229 26.088 50.6229C26.4 50.6229 26.556 50.4789 26.556 50.1909V46.9989H24.324V46.2069H26.556V44.8629H24.132V44.0829ZM25.164 47.6469L25.956 47.8149C25.644 49.0269 25.2 50.0829 24.648 50.9829L23.928 50.5269C24.492 49.6629 24.9 48.7029 25.164 47.6469ZM28.608 47.5629C28.968 48.3429 29.256 49.0509 29.448 49.6989L28.728 49.9749C28.5 49.2189 28.224 48.4749 27.888 47.7549L28.608 47.5629Z" fill="#333333"/>
<path d="M16.524 40.3509H17.412V41.5509C17.4 41.9709 17.388 42.3789 17.364 42.7749H21.96C21.912 44.8389 21.84 46.5189 21.72 47.8029C21.6 49.0629 21.396 49.9509 21.108 50.4549C20.82 50.9349 20.364 51.1869 19.74 51.2349H18.168L17.928 50.3949C18.408 50.4189 18.876 50.4309 19.308 50.4309C19.992 50.4309 20.436 50.0109 20.652 49.1829C20.868 48.3069 21.012 46.4469 21.084 43.6149H17.292C17.112 45.3189 16.764 46.7349 16.248 47.8869C15.528 49.3509 14.376 50.4909 12.768 51.3069L12.3 50.5749C13.872 49.7349 14.976 48.6069 15.6 47.2149C15.996 46.2189 16.26 45.0189 16.404 43.6149H12.912V42.7749H16.476C16.5 42.3669 16.512 41.9589 16.524 41.5509V40.3509Z" fill="#333333"/>
<path d="M4.872 41.0349V48.3429C5.148 48.2589 5.412 48.1749 5.676 48.0909V48.9069C4.116 49.4109 2.304 49.8789 0.24 50.3109L0 49.4709C0.288 49.4109 0.576 49.3509 0.864 49.3029V41.0349H4.872ZM1.716 49.1229C2.532 48.9429 3.3 48.7629 4.032 48.5709V46.9149H1.716V49.1229ZM1.716 46.1349H4.032V44.3229H1.716V46.1349ZM1.716 43.5309H4.032V41.8269H1.716V43.5309ZM7.056 40.3749H7.92V42.7749H10.572C10.572 46.5189 10.512 48.8229 10.392 49.7109C10.272 50.6949 9.672 51.1989 8.592 51.1989C8.4 51.1989 8.064 51.1869 7.584 51.1629L7.38 50.3949C7.8 50.4189 8.16 50.4429 8.472 50.4429C9.108 50.4429 9.48 50.0829 9.576 49.3869C9.648 48.7629 9.696 46.8309 9.72 43.6149H7.92V43.7829C7.884 47.2389 7.032 49.7709 5.364 51.3669L4.716 50.8029C6.252 49.3509 7.032 47.0109 7.056 43.7829V43.6149H5.568V42.7749H7.056V40.3749Z" fill="#333333"/>
</svg>
