<svg width="92" height="40" viewBox="0 0 92 40" fill="none" xmlns="http://www.w3.org/2000/svg">
<circle cx="20" cy="20" r="20" fill="#217AFF"/>
<path d="M25.903 14.1133H22.9674V22.2344C22.9677 22.3596 22.9677 22.4846 22.9611 22.6108H22.9579C22.9572 22.6376 22.9582 22.6636 22.9562 22.6916C22.8062 25.4722 20.5053 27.5033 17.8103 27.3486C16.5414 27.2758 15.4135 26.7084 14.5897 25.8395C15.6197 27.4891 17.3752 28.6281 19.4155 28.7452C22.5867 28.9278 25.3374 26.5839 25.8279 23.4155C25.8564 23.2017 25.8789 22.9839 25.8906 22.7633C25.8977 22.6313 25.8957 22.5005 25.8959 22.3697H25.903V14.1133Z" fill="white"/>
<path d="M19.3925 29.1694C15.8897 28.9681 13.1748 25.951 13.1977 22.3697C13.1967 22.2584 13.1985 22.1474 13.2045 22.0342C13.2048 22.0264 13.2063 22.0189 13.2068 22.011H13.1977V14.1133H13.1972H10.2621V22.3697V22.6199L10.2721 22.612C10.4147 26.7334 13.5789 30.1384 17.6469 30.3727C20.2038 30.5194 22.5406 29.3816 24.0713 27.5057C22.8254 28.6286 21.1717 29.2711 19.3925 29.1694Z" fill="white"/>
<path d="M27.9865 16.6672C27.7827 16.6672 27.5741 16.6672 27.3645 16.6672V17.8897C27.5995 17.8897 27.7815 17.8897 27.9865 17.8897C28.0693 17.8897 28.1403 17.8897 28.1952 17.8897C29.1873 17.8897 29.8301 17.2778 29.8301 17.2778L30.465 16.671H30.4543L30.465 16.667C30.465 16.6672 29.3279 16.6672 27.9865 16.6672Z" fill="white"/>
<path d="M32.8769 17.8895C33.0809 17.8895 33.2894 17.8895 33.499 17.8895V16.667C33.264 16.667 33.0822 16.667 32.8769 16.667C32.7942 16.667 32.7234 16.667 32.6683 16.667C31.6766 16.667 31.0333 17.2789 31.0333 17.2789L30.3986 17.8857H30.4091L30.3986 17.8897C30.3986 17.8895 31.5353 17.8895 32.8769 17.8895Z" fill="white"/>
<path d="M31.0232 14.7552C31.0232 14.5442 31.0232 14.3294 31.0232 14.1133H29.8389C29.8389 14.3556 29.8389 14.5432 29.8389 14.7552C29.8389 14.8406 29.8389 14.9128 29.8389 14.9701C29.8389 15.9937 30.4317 16.6572 30.4317 16.6572L31.0198 17.3122V17.3009L31.0232 17.3122C31.0232 17.3124 31.0232 16.1393 31.0232 14.7552Z" fill="white"/>
<path d="M29.8389 19.8018C29.8389 20.0128 29.8389 20.2276 29.8389 20.4437H31.0232C31.0232 20.2014 31.0232 20.0138 31.0232 19.8018C31.0232 19.7165 31.0232 19.6437 31.0232 19.5869C31.0232 18.5633 30.4304 17.8998 30.4304 17.8998L29.8423 17.2448V17.2556L29.8389 17.2448C29.8389 17.2446 29.8389 18.4177 29.8389 19.8018Z" fill="white"/>
<g clip-path="url(#clip0_137_4170)">
<path d="M67.4447 10.6677L67.3388 11.3541C67.2329 12.0311 66.6048 12.5348 65.8635 12.5348H59.0116L57.8072 20.4674H67.1072L66.989 21.1678C66.8757 21.8379 66.2501 22.3322 65.5162 22.3322H57.5191L56.6472 28.1164C56.4847 29.1964 55.4823 30 54.3 30H53.5907L54.7705 22.3345H46L46.3128 20.4674H55.0586L56.2876 12.5348H48.5787L48.655 12.0475C48.7782 11.2557 49.5121 10.67 50.3791 10.67H67.4447V10.6677ZM51.7829 13.7109C52.2164 15.222 52.8592 17.0891 53.7114 19.31H50.916C50.6598 18.5557 50.3766 17.6795 50.0737 16.6885C49.7683 15.6952 49.4801 14.7042 49.2067 13.7109H51.7829ZM62.5311 19.3335H59.6618C60.2554 18.4901 60.8219 17.5741 61.3612 16.5901C61.8982 15.6062 62.3538 14.6527 62.7232 13.7343H65.3019C64.4005 15.8662 63.4769 17.7334 62.5311 19.3335Z" fill="#131B26"/>
<path d="M87.7385 17.2665L88.4921 18.4683L70.4611 18.4425C71.8896 17.154 73.3599 15.7343 74.8697 14.1881C76.3795 12.6395 77.6651 11.2433 78.7242 9.99927C80.1108 9.99927 80.8497 11.5548 79.931 12.5435C79.7364 12.7543 79.5345 12.9675 79.3276 13.1877C78.202 14.3802 77.1011 15.4649 76.0273 16.4442H87.2089C85.9233 14.488 85.0243 13.0659 84.5096 12.178C86.2582 12.178 87.8912 13.012 88.8542 14.4036C89.1916 14.8909 89.5709 15.4344 89.992 16.0342C91.2358 17.8053 91.9722 18.8525 92.1964 19.1781H88.9182C88.6793 18.7611 88.2852 18.1239 87.7385 17.2665ZM87.5931 20.7759C88.1399 20.7759 88.5315 20.8509 88.7729 20.9984C89.0143 21.146 89.1472 21.3663 89.1694 21.6544C89.194 21.9426 89.1817 22.2588 89.1325 22.5985L88.3172 28.2867C88.1769 29.266 87.2705 29.9969 86.2016 29.9969H70.8453L72.3156 20.7759H87.5931ZM86.2681 23.1327C86.3174 22.8961 86.2188 22.7766 85.9799 22.7766H74.7268L74.0052 27.9986H83.6993C84.7706 27.9986 85.6745 27.2676 85.8149 26.2884L86.2681 23.1327Z" fill="#131B26"/>
</g>
<defs>
<clipPath id="clip0_137_4170">
<rect width="46" height="20" fill="white" transform="translate(46 10)"/>
</clipPath>
</defs>
</svg>
