<svg width="309" height="48" viewBox="0 0 309 48" fill="none" xmlns="http://www.w3.org/2000/svg">
<circle cx="24" cy="24" r="24" fill="#217AFF"/>
<path d="M31.0832 16.9375H27.5605V26.6829C27.5609 26.8331 27.5609 26.9831 27.553 27.1345H27.5491C27.5483 27.1666 27.5495 27.1979 27.5471 27.2315C27.3671 30.5682 24.6061 33.0055 21.372 32.8198C19.8494 32.7326 18.4959 32.0516 17.5073 31.0089C18.7433 32.9885 20.8499 34.3553 23.2983 34.4958C27.1036 34.7149 30.4045 31.9022 30.9932 28.1002C31.0273 27.8436 31.0544 27.5822 31.0684 27.3175C31.0769 27.1591 31.0745 27.0022 31.0747 26.8452H31.0832V16.9375Z" fill="white"/>
<path d="M23.2707 35.0048C19.0673 34.7633 15.8095 31.1428 15.8369 26.8452C15.8357 26.7116 15.838 26.5784 15.8451 26.4427C15.8455 26.4332 15.8473 26.4242 15.8479 26.4148H15.8369V16.9375H15.8363H12.3142V26.8452V27.1454L12.3262 27.136C12.4974 32.0816 16.2944 36.1677 21.1759 36.4488C24.2442 36.6248 27.0484 35.2595 28.8852 33.0084C27.3902 34.3559 25.4058 35.1269 23.2707 35.0048Z" fill="white"/>
<path d="M33.5835 20.0041C33.339 20.0041 33.0887 20.0041 32.8372 20.0041V21.4712C33.1192 21.4712 33.3375 21.4712 33.5835 21.4712C33.683 21.4712 33.7682 21.4712 33.834 21.4712C35.0245 21.4712 35.7959 20.7369 35.7959 20.7369L36.5577 20.0087H36.5449L36.5577 20.0039C36.5577 20.0041 35.1932 20.0041 33.5835 20.0041Z" fill="white"/>
<path d="M39.452 21.471C39.6968 21.471 39.9471 21.471 40.1986 21.471V20.0039C39.9166 20.0039 39.6984 20.0039 39.452 20.0039C39.3528 20.0039 39.2678 20.0039 39.2017 20.0039C38.0117 20.0039 37.2397 20.7382 37.2397 20.7382L36.478 21.4664H36.4906L36.478 21.4712C36.478 21.471 37.8421 21.471 39.452 21.471Z" fill="white"/>
<path d="M37.2276 17.7078C37.2276 17.4546 37.2276 17.1968 37.2276 16.9375H35.8064C35.8064 17.2283 35.8064 17.4534 35.8064 17.7078C35.8064 17.8102 35.8064 17.8969 35.8064 17.9657C35.8064 19.194 36.5178 19.9901 36.5178 19.9901L37.2235 20.7762V20.7626L37.2276 20.7762C37.2276 20.7764 37.2276 19.3688 37.2276 17.7078Z" fill="white"/>
<path d="M35.8064 23.7637C35.8064 24.0169 35.8064 24.2747 35.8064 24.534H37.2276C37.2276 24.2433 37.2276 24.0182 37.2276 23.7637C37.2276 23.6613 37.2276 23.574 37.2276 23.5059C37.2276 22.2775 36.5162 21.4814 36.5162 21.4814L35.8105 20.6953V20.7083L35.8064 20.6953C35.8064 20.6951 35.8064 22.1028 35.8064 23.7637Z" fill="white"/>
<path opacity="0.7" d="M153.502 17.632L154.146 18.808C152.942 19.228 151.612 19.48 150.156 19.578V21.846H154.482V23.12H153.138V30.456H151.836V23.12H150.156V24.534C150.086 26.998 149.54 28.958 148.518 30.428L147.58 29.42C148.378 28.244 148.812 26.62 148.868 24.534V18.486C150.59 18.458 152.13 18.164 153.502 17.632ZM141.812 18.626H144.304C144.136 18.262 143.94 17.912 143.73 17.59L145.102 17.366C145.27 17.744 145.452 18.164 145.62 18.626H148.21V19.858H141.812V18.626ZM141.672 21.804H143.156C142.974 21.314 142.764 20.852 142.526 20.432L143.688 19.998C143.912 20.502 144.136 21.104 144.332 21.804H145.662C145.886 21.216 146.082 20.614 146.25 19.984L147.44 20.404C147.272 20.922 147.076 21.384 146.866 21.804H148.294V23.022H145.704V24.282H148.056V25.486H145.704V29.238C145.704 30.078 145.242 30.498 144.318 30.498H143.59L143.296 29.266C143.506 29.322 143.702 29.35 143.884 29.35C144.22 29.35 144.388 29.21 144.388 28.93V25.486H141.896V24.282H144.388V23.022H141.672V21.804ZM142.736 26.102L143.94 26.354C143.604 27.768 143.142 29 142.526 30.05L141.434 29.35C142.05 28.342 142.484 27.25 142.736 26.102ZM147.118 26.004C147.482 26.9 147.776 27.712 147.986 28.44L146.866 28.86C146.642 27.992 146.362 27.138 146.026 26.298L147.118 26.004ZM161.342 19.774H156.652V18.5H167.39V19.774H162.686V28.286H168.272V29.574H155.742V28.286H161.342V19.774ZM182.3 24.996L182.51 26.284L181.194 26.494V30.4H179.85V26.718L175.636 27.39L175.44 26.102L179.85 25.388V17.576H181.194V25.178L182.3 24.996ZM176.994 18.29C177.946 18.962 178.758 19.648 179.416 20.32L178.506 21.244C177.918 20.6 177.106 19.928 176.056 19.2L176.994 18.29ZM176.574 21.51C177.554 22.21 178.38 22.924 179.052 23.638L178.1 24.576C177.512 23.918 176.7 23.204 175.636 22.42L176.574 21.51ZM169.84 21.188H172.024V19.438C171.394 19.522 170.75 19.606 170.106 19.662L169.854 18.416C171.66 18.276 173.27 17.996 174.698 17.576L175.16 18.822C174.586 18.976 173.984 19.116 173.368 19.228V21.188H175.16V22.462H173.368V23.008C174.11 23.568 174.866 24.212 175.636 24.94L174.894 26.074C174.292 25.332 173.788 24.73 173.368 24.282V30.4H172.024V24.366C171.506 25.598 170.834 26.732 169.994 27.74L169.406 26.256C170.526 25.136 171.352 23.876 171.87 22.462H169.84V21.188ZM190.63 17.548C190.63 18.78 190.588 19.816 190.532 20.684C191.344 24.408 193.36 27.25 196.552 29.21L195.67 30.372C192.982 28.58 191.106 26.172 190.042 23.176C189.118 26.088 187.186 28.496 184.246 30.4L183.434 29.21C187.214 26.914 189.16 23.764 189.272 19.746C189.272 18.808 189.286 18.08 189.286 17.548H190.63ZM205.246 30.33H203.034L202.726 29.042C203.454 29.084 204.14 29.112 204.784 29.112C205.134 29.112 205.316 28.902 205.316 28.482V21.258H205.064C203.706 24.142 201.41 26.522 198.176 28.37L197.476 27.236C200.346 25.682 202.432 23.694 203.72 21.258H197.742V19.984H205.316V17.534H206.646V19.984H210.048V21.258H206.646V28.818C206.646 29.826 206.17 30.33 205.246 30.33ZM211.602 21.132H213.156V17.576H214.472V21.132H215.9V22.42H214.472V26.648C215.046 26.438 215.606 26.2 216.166 25.948V27.264C214.794 27.894 213.338 28.426 211.77 28.846L211.434 27.502C212.022 27.39 212.596 27.25 213.156 27.082V22.42H211.602V21.132ZM216.348 18.794H219.414C219.288 18.402 219.148 18.024 219.008 17.688L220.408 17.464C220.52 17.856 220.618 18.304 220.73 18.794H223.852V20.054H216.348V18.794ZM215.97 22.644H218.042C217.804 22.014 217.524 21.426 217.188 20.866L218.392 20.418C218.728 21.034 219.022 21.776 219.288 22.644H221.066C221.402 21.916 221.71 21.146 221.99 20.32L223.194 20.74C222.942 21.44 222.648 22.084 222.34 22.644H224.146V23.918H215.97V22.644ZM223.404 24.94V30.386H222.13V29.686H218.182V30.386H216.922V24.94H223.404ZM218.182 28.44H222.13V26.186H218.182V28.44ZM226.19 18.934H229.326C229.102 18.612 228.878 18.318 228.654 18.052L229.844 17.478C230.18 17.926 230.502 18.402 230.824 18.934H233.218C233.526 18.458 233.82 17.968 234.072 17.436L235.374 17.898C235.178 18.276 234.954 18.626 234.73 18.934H237.852V20.082H232.588C232.504 20.362 232.42 20.642 232.336 20.908H237.11V22.014H231.916C231.776 22.308 231.636 22.588 231.496 22.868H238.118V24.016H234.842C235.668 24.884 236.886 25.584 238.51 26.102L237.936 27.306C236.732 26.83 235.738 26.27 234.954 25.626V30.414H233.61V25.206H234.464C234.058 24.828 233.722 24.436 233.442 24.016H230.768C230.432 24.45 230.082 24.842 229.718 25.206H230.796V26.298C230.74 27.404 230.446 28.286 229.886 28.958C229.354 29.574 228.486 30.064 227.282 30.4L226.554 29.266C227.674 28.986 228.43 28.608 228.822 28.16C229.2 27.684 229.41 27.054 229.452 26.298V25.458C228.528 26.256 227.464 26.858 226.246 27.278L225.532 26.102C226.974 25.654 228.15 24.968 229.074 24.016H225.882V22.868H229.984C230.166 22.588 230.334 22.294 230.488 22.014H226.932V20.908H230.964C231.062 20.628 231.146 20.362 231.23 20.082H226.19V18.934ZM243.004 19.326H240.708V18.024H249.276V18.892C249.024 20.012 248.758 20.992 248.506 21.832H251.292V22.616C250.886 24.478 250.046 26.06 248.772 27.348C249.78 28.062 250.956 28.706 252.3 29.28L251.418 30.47C249.99 29.812 248.758 29.084 247.736 28.272C246.518 29.21 245.034 29.966 243.27 30.54L242.5 29.308C244.138 28.762 245.51 28.104 246.63 27.32C245.524 26.242 244.67 25.052 244.068 23.75C243.564 26.634 242.402 28.86 240.582 30.414L239.56 29.518C241.814 27.628 242.962 24.604 243.004 20.46V19.326ZM247.666 26.48C248.73 25.486 249.472 24.338 249.892 23.05H246.854C247.148 22.196 247.47 20.95 247.82 19.326H244.348V20.46C244.348 20.712 244.334 20.95 244.334 21.188C244.838 23.218 245.944 24.982 247.666 26.48ZM260.182 17.352C260.378 17.8 260.56 18.304 260.756 18.864H265.614V20.124H263.262C263.122 20.754 262.926 21.37 262.674 21.958H265.908V23.246H255.968V25.136C255.912 27.32 255.422 29.084 254.47 30.414L253.448 29.518C254.204 28.454 254.596 26.998 254.624 25.136V21.958H257.452L256.962 20.124H254.47V18.864H259.398C259.216 18.402 259.006 17.968 258.782 17.576L260.182 17.352ZM258.768 21.958H261.4C261.652 21.37 261.848 20.754 261.988 20.124H258.264L258.768 21.958ZM275.54 22.826C275.302 23.26 275.064 23.652 274.812 24.002L274.028 23.022C274.868 21.65 275.442 19.802 275.75 17.506L277.052 17.73C276.94 18.374 276.828 18.99 276.702 19.55H280.16V20.824H279.39C279.306 22.994 278.858 24.856 278.046 26.424C278.704 27.53 279.544 28.468 280.566 29.238L279.894 30.414C278.858 29.644 278.004 28.706 277.332 27.6C276.534 28.72 275.512 29.658 274.28 30.414L273.524 29.196C274.84 28.468 275.876 27.502 276.632 26.298C276.156 25.248 275.792 24.086 275.54 22.826ZM278.172 20.824H276.352C276.338 20.838 276.338 20.852 276.338 20.866C276.492 22.406 276.814 23.764 277.318 24.968C277.808 23.764 278.088 22.378 278.172 20.824ZM268.428 18.738H270.122V17.632H271.396V18.738H272.796V19.914H271.396V21.062H271.984C272.712 20.152 273.342 19.158 273.874 18.08L274.91 18.626C274.448 19.508 273.958 20.32 273.454 21.062H274.238V22.28H272.516C272.208 22.644 271.914 22.966 271.606 23.274H273.79V24.226C273.328 24.772 272.782 25.318 272.152 25.864V26.312C273.048 26.172 273.832 26.018 274.532 25.822V27.054C273.916 27.222 273.118 27.376 272.152 27.516V28.888C272.152 29.826 271.676 30.302 270.738 30.302H269.45L269.114 29.112C269.59 29.168 269.968 29.21 270.248 29.21C270.654 29.21 270.864 28.986 270.864 28.538V27.684C269.982 27.796 269.002 27.894 267.938 27.992L267.756 26.718C268.89 26.662 269.926 26.578 270.864 26.48V25.612C271.34 25.276 271.788 24.884 272.222 24.45H270.304C269.66 24.954 269.002 25.402 268.302 25.794L267.476 24.856C267.798 24.674 268.106 24.492 268.414 24.296V23.274H269.814C270.206 22.938 270.57 22.616 270.906 22.28H267.77V21.062H270.122V19.914H268.428V18.738ZM288.742 19.9H290.66V17.576H291.906V19.9H293.88V25.752H291.906V28.496L292.914 28.286C292.774 27.754 292.634 27.25 292.48 26.774L293.502 26.452C293.88 27.488 294.216 28.678 294.496 30.022L293.362 30.288C293.306 29.98 293.236 29.686 293.18 29.392C291.822 29.728 290.38 30.008 288.868 30.232L288.56 28.986C289.274 28.916 289.974 28.832 290.66 28.72V25.752H288.742V19.9ZM292.76 24.604V21.048H291.836V24.604H292.76ZM290.744 24.604V21.048H289.876V24.604H290.744ZM281.742 17.996H288.49V19.186H281.742V17.996ZM282.498 19.83H287.692V23.022H282.498V19.83ZM286.53 21.986V20.866H283.674V21.986H286.53ZM283.45 26.844H284.052C283.884 26.34 283.702 25.864 283.492 25.416L284.332 25.15C284.542 25.584 284.724 26.088 284.878 26.648L284.164 26.844H285.172C285.396 26.284 285.606 25.682 285.774 25.052L286.67 25.36C286.502 25.906 286.306 26.396 286.11 26.844H286.74V27.852H285.578V30.274H284.528V27.852H283.45V26.844ZM287.132 30.344H286.138L285.816 29.168L286.74 29.238C286.978 29.238 287.104 29.14 287.104 28.958V24.744H283.086V30.456H281.938V23.652H288.252V29.21C288.252 29.966 287.874 30.344 287.132 30.344ZM301.51 17.492H302.49C304.254 19.48 306.27 21.048 308.566 22.196L307.852 23.47C307.082 23.05 306.354 22.602 305.682 22.126V23.12H298.318V22.098C297.618 22.602 296.876 23.064 296.092 23.498L295.392 22.21C297.842 20.95 299.886 19.368 301.51 17.492ZM298.668 21.846H305.304C304.072 20.922 302.966 19.872 302 18.696C301.062 19.844 299.956 20.894 298.668 21.846ZM306.564 24.618V30.428H305.276V29.672H298.724V30.428H297.436V24.618H306.564ZM298.724 28.412H305.276V25.864H298.724V28.412Z" fill="white"/>
<g clip-path="url(#clip0_4945_154)">
<path d="M87.7008 10.0039L87.5443 11.0335C87.3877 12.0491 86.4593 12.8047 85.3634 12.8047H75.2346L73.4542 24.7034H87.202L87.0273 25.7542C86.8598 26.7592 85.935 27.5007 84.85 27.5007H73.0282L71.7394 36.177C71.4991 37.797 70.0172 39.0024 68.2696 39.0024H67.2211L68.965 27.5042H56L56.4624 24.7034H69.391L71.2078 12.8047H59.812L59.9248 12.0737C60.1069 10.8859 61.1918 10.0074 62.4734 10.0074H87.7008V10.0039ZM64.5487 14.5687C65.1895 16.8353 66.1397 19.6361 67.3995 22.9675H63.2671C62.8885 21.8359 62.4698 20.5217 62.022 19.0352C61.5705 17.5452 61.1445 16.0587 60.7404 14.5687H64.5487ZM80.4373 23.0026H76.1957C77.0732 21.7375 77.9106 20.3635 78.7079 18.8876C79.5016 17.4117 80.1752 15.9814 80.7213 14.6039H84.5333C83.2007 17.8017 81.8354 20.6025 80.4373 23.0026Z" fill="white"/>
<path d="M117.7 19.9008L118.815 21.7035L92.1599 21.6649C94.2716 19.7321 96.4452 17.6026 98.677 15.2832C100.909 12.9604 102.809 10.866 104.375 9C106.425 9 107.517 11.3334 106.159 12.8163C105.871 13.1326 105.573 13.4524 105.267 13.7827C103.603 15.5714 101.976 17.1984 100.388 18.6673H116.918C115.017 15.733 113.688 13.6 112.927 12.2681C115.512 12.2681 117.926 13.5192 119.35 15.6065C119.849 16.3375 120.409 17.1527 121.032 18.0524C122.87 20.709 123.959 22.2798 124.29 22.7683H119.444C119.091 22.1428 118.509 21.187 117.7 19.9008ZM117.486 25.1649C118.294 25.1649 118.873 25.2774 119.23 25.4988C119.586 25.7202 119.783 26.0505 119.816 26.4827C119.852 26.915 119.834 27.3894 119.761 27.8989L118.556 36.4312C118.348 37.9001 117.009 38.9965 115.429 38.9965H92.7279L94.9015 25.1649H117.486ZM115.527 28.7001C115.6 28.3452 115.454 28.166 115.101 28.166H98.4658L97.3991 35.9989H111.729C113.313 35.9989 114.649 34.9025 114.857 33.4336L115.527 28.7001Z" fill="white"/>
</g>
<rect opacity="0.3" x="132" y="18" width="1" height="12" fill="white"/>
<defs>
<clipPath id="clip0_4945_154">
<rect width="68" height="30" fill="white" transform="translate(56 9)"/>
</clipPath>
</defs>
</svg>
